<svg width="32" height="32" viewBox="0 0 32 32" fill="none" xmlns="http://www.w3.org/2000/svg">
<g id="Group 323">
<rect id="Rectangle 288" x="0.5" y="0.5" width="31" height="31" rx="4.5" stroke="white"/>
<g id="TwitterLogo">
<path id="Vector" d="M16.2406 13.0401C16.2406 11.2801 17.7205 9.81613 19.4805 9.84013C20.0969 9.84725 20.6981 10.0322 21.2118 10.3728C21.7256 10.7134 22.13 11.1952 22.3765 11.7601H25.2006L22.6166 14.3441C22.4498 16.9398 21.3008 19.3745 19.4031 21.1533C17.5054 22.9321 15.0016 23.9214 12.4005 23.9201C9.84055 23.9201 9.20055 22.9601 9.20055 22.9601C9.20055 22.9601 11.7605 22.0001 13.0405 20.0801C13.0405 20.0801 7.92055 17.5201 9.20055 10.4801C9.20055 10.4801 12.4005 13.6801 16.2406 14.3201V13.0401Z" fill="#00C2FF"/>
</g>
</g>
</svg>
